# xmcd CD database file
#
# Track frame offsets:
#	150
#	15230
#	44187
#	58720
#	75287
#	96837
#	115137
#	134745
#	148912
#	167793
#	183566
#	194776
#	202283
#	213425
#	236357
#	254195
#	272439
#	294933
#	310161
#
# Disc length: 4204 seconds
#
# Revision: 3
# Processed by: cddbd v1.5.2PL0 Copyright (c) Steve Scherf et al.
# Submitted via: CDex 1.70
#
DISCID=2a106a13
DTITLE=Giant Giant Sand - Tucson
DYEAR=2012
DGENRE=Alternative
TTITLE0=Wind Blown Waltz
TTITLE1=Forever And A Day
TTITLE2=Detained
TTITLE3=Lost Love
TTITLE4=Plane Of Existence
TTITLE5=Undiscovered Country
TTITLE6=Love Comes Over You
TTITLE7=Thing Like That
TTITLE8=The Sun Belongs To You
TTITLE9=We Don't Play Tonight
TTITLE10=Ready Or Not
TTITLE11=Mostly Wrong
TTITLE12=Hard Morning In A Soft Blur
TTITLE13=Recovery Mission
TTITLE14=Slag Heap
TTITLE15=Not The End Of The World
TTITLE16=Carinito
TTITLE17=Out Of The Blue
TTITLE18=New River
EXTD=YEAR: 2012
EXTT0=
EXTT1=
EXTT2=
EXTT3=
EXTT4=
EXTT5=
EXTT6=
EXTT7=
EXTT8=
EXTT9=
EXTT10=
EXTT11=
EXTT12=
EXTT13=
EXTT14=
EXTT15=
EXTT16=
EXTT17=
EXTT18=
PLAYORDER=
